<svg xmlns="http://www.w3.org/2000/svg" version="1.1" xmlns:xlink="http://www.w3.org/1999/xlink" xmlns:svgjs="http://svgjs.dev/svgjs" width="2000" height="368" viewBox="0 0 2000 368"><g transform="matrix(1,0,0,1,-1.2121212121212466,1.0000238237046801)"><svg viewBox="0 0 396 73" data-background-color="#282634" preserveAspectRatio="xMidYMid meet" height="368" width="2000" xmlns="http://www.w3.org/2000/svg" xmlns:xlink="http://www.w3.org/1999/xlink"><g id="tight-bounds" transform="matrix(1,0,0,1,0.2400000000000091,-0.19837429111532856)"><svg viewBox="0 0 395.52 73.39674858223063" height="73.39674858223063" width="395.52"><g><svg viewBox="0 0 395.52 73.39674858223063" height="73.39674858223063" width="395.52"><g><svg viewBox="0 0 395.52 73.39674858223063" height="73.39674858223063" width="395.52"><g><svg viewBox="0 0 395.52 73.39674858223063" height="73.39674858223063" width="395.52"><g><svg viewBox="0 0 395.52 73.39674858223063" height="73.39674858223063" width="395.52"><g transform="matrix(1,0,0,1,0,0)"><svg width="395.52" viewBox="4 -29.450000762939453 158.69000244140625 29.450000762939453" height="73.39674858223063" data-palette-color="#ff4057"><path d="M27.2 0L4.5 0 4.5-25.4 4-29.4 27.2-29.4Q33.25-29.4 36.27-27 39.3-24.6 39.3-19.5L39.3-19.5 39.3-9.95Q39.3-4.75 36.3-2.38 33.3 0 27.2 0L27.2 0ZM14.25-22.6L14.25-6.9 25.7-6.9Q29.55-6.9 29.6-10.45L29.6-10.45 29.6-19.1Q29.6-20.55 28.75-21.58 27.9-22.6 25.7-22.6L25.7-22.6 14.25-22.6ZM70.55 0L55.95 0Q50.65 0 48.22-2.38 45.8-4.75 45.8-9.95L45.8-9.95 45.8-19.5Q45.8-24.6 48.2-27 50.6-29.4 55.95-29.4L55.95-29.4 70.55-29.4Q75.8-29.4 78.22-27 80.65-24.6 80.65-19.5L80.65-19.5 80.65-9.95Q80.65-4.75 78.2-2.38 75.75 0 70.55 0L70.55 0ZM59.4-6.8L59.4-6.8 67.15-6.8Q71.05-6.8 71.05-10.35L71.05-10.35 71.05-19.1Q71.05-22.6 67.15-22.6L67.15-22.6 59.4-22.6Q57.4-22.6 56.4-21.8 55.4-21 55.4-19.1L55.4-19.1 55.4-10.35Q55.4-8.5 56.4-7.65 57.4-6.8 59.4-6.8ZM98.4 0L88.65 0 88.65-25.4 88.15-29.45 111.3-29.45Q114.65-29.45 116.67-28.73 118.7-28 119.72-26.78 120.75-25.55 121.07-23.93 121.4-22.3 121.4-20.5L121.4-20.5 121.4-16.55Q121.4-14.15 120.62-12.13 119.85-10.1 117.77-8.88 115.7-7.65 111.8-7.65L111.8-7.65 108.35-7.65Q105.2-7.65 102.47-7.8 99.75-7.95 98.4-8.05L98.4-8.05 98.4 0ZM98.4-22.55L98.4-14.45 108.75-14.45Q110.4-14.45 111.05-15.1 111.7-15.75 111.7-17.2L111.7-17.2 111.7-19.75Q111.7-21.2 111.1-21.88 110.5-22.55 108.8-22.55L108.8-22.55 98.4-22.55ZM156.69 0L128.39 0 128.39-29.4 160.49-29.4 160.49-22.6 138.14-22.6 138.14-18.45 154.69-18.45 154.69-11.5 138.14-11.5 138.14-6.85 159.69-6.85 162.69-0.55Q162.69-0.35 161.34-0.18 159.99 0 156.69 0L156.69 0Z" opacity="1" transform="matrix(1,0,0,1,0,0)" fill="#ff4057" class="undefined-text-0" data-fill-palette-color="primary" id="text-0"></path></svg></g></svg></g></svg></g></svg></g><g></g></svg></g><defs></defs></svg><rect width="395.52" height="73.39674858223063" fill="none" stroke="none" visibility="hidden"></rect></g></svg></g></svg>